<svg xmlns="http://www.w3.org/2000/svg" viewBox="0 0 2000.97 400.5"><defs><style>.cls-1,.cls-3{fill:#fff;}.cls-1{stroke:#000;stroke-miterlimit:10;}.cls-1,.cls-2{opacity:0.77;}.cls-2{fill:#35e5ff;}</style></defs><g id="レイヤー_2" data-name="レイヤー 2"><g id="レイヤー_1-2" data-name="レイヤー 1"><path class="cls-1" d="M2000,400H307.64L36.27,16.84H1728.63Z"/><path class="cls-2" d="M1963.73,383.16H271.37L0,0H1692.36Z"/><path class="cls-3" d="M462,280.25a2.49,2.49,0,0,1-2.46-2.16L436.83,103h-.5L386.84,278.44a2.47,2.47,0,0,1-2.38,1.81h-4.25a2.49,2.49,0,0,1-2.39-1.81L328.33,103h-.5L305.11,278.09a2.48,2.48,0,0,1-2.45,2.16h0a2.48,2.48,0,0,1-2.46-2.8L323.3,99.91a2.48,2.48,0,0,1,2.46-2.16h4.45a2.48,2.48,0,0,1,2.38,1.8l49.49,175.7h.5l49.49-175.7a2.5,2.5,0,0,1,2.39-1.8h4.45a2.47,2.47,0,0,1,2.45,2.16l23.11,177.54a2.48,2.48,0,0,1-2.46,2.8Z"/><path class="cls-3" d="M593.05,277.83a1.47,1.47,0,0,1-1.47-1.47V248.83h-.5c-8.32,17.8-25.19,29.61-46.65,31.29-25.2,2-46.33-19.73-42.3-44.68a36.61,36.61,0,0,1,7.95-17.36c6.5-8,15.75-13.75,33.5-17.5a156.85,156.85,0,0,1,30.5-2.75h16a1.47,1.47,0,0,0,1.47-1.47v-11c0-25.75-9.75-35-37.5-35a113.75,113.75,0,0,0-44.2,8.38,1.48,1.48,0,0,1-2.05-1.35v-2.29a1.48,1.48,0,0,1,.92-1.37c13.52-5.5,28.71-8.37,45.33-8.37,30.75,0,42.5,11.25,42.5,40v91a1.47,1.47,0,0,1-1.47,1.47Zm-1.47-52.5v-21a1.47,1.47,0,0,0-1.47-1.47h-16c-42,0-64.4,11.54-67.2,34.84-2.54,21.12,15.34,39,36.57,37.51C571.45,273.26,591.58,252.91,591.58,225.33Z"/><path class="cls-3" d="M649.62,92.75a2.46,2.46,0,0,1,2.46,2.46v114h.5l79.1-58.52a2.46,2.46,0,0,1,1.46-.48h.18a2.46,2.46,0,0,1,1.46,4.45l-76.33,56.12a2.46,2.46,0,0,0-.06,3.93l78.06,61.09a2.47,2.47,0,0,1-1.52,4.41h0a2.46,2.46,0,0,1-1.52-.53l-80.83-63.47h-.5v61.53a2.47,2.47,0,0,1-2.46,2.47h-.08a2.47,2.47,0,0,1-2.46-2.47V95.21a2.46,2.46,0,0,1,2.46-2.46Z"/><path class="cls-3" d="M874.08,262.5c-9.75,11.75-23.75,17.75-41.5,17.75-35.75,0-56.25-24.5-56.25-67.5s20.5-67.5,56.25-67.5,56.25,24.5,56.25,67.5C888.83,234.25,883.83,250.75,874.08,262.5Zm-79.5-3.5c8.75,10.75,21.5,16.25,38,16.25,33,0,51.25-22.25,51.25-62.5s-18.25-62.5-51.25-62.5-51.25,22.25-51.25,62.5C781.33,233,785.83,248.25,794.58,259Z"/><path class="cls-3" d="M1059.58,273.37a2.5,2.5,0,0,1-2,2.95l-10,1.79c-46.5,8.25-99.75-7.5-79.5-46,7.72-14.56,29.47-24.84,47.36-31a2.49,2.49,0,0,0,.25-4.6c-10-5-16.12-15.53-17.36-30.9-1.46-17,5.82-47.73-10.31-70.56a2.48,2.48,0,0,1,.54-3.42h0a2.51,2.51,0,0,1,3.56.57c17,24.28,9.75,56.39,11.21,72.91,1.91,22.76,14.61,32.89,36.56,29.09a2.49,2.49,0,0,1,2.94,2.45v.19a2.5,2.5,0,0,1-2,2.44c-10.16,2.23-56.73,13.54-68.29,35.33-17.25,33,29,46.75,74,38.5l10.09-1.81a2.5,2.5,0,0,1,2.89,2Z"/><path class="cls-3" d="M1097.14,248.8h0a2.58,2.58,0,0,1,3.52.62,525.73,525.73,0,0,1,36.79,58.93,2.55,2.55,0,0,1-1.14,3.51h0a2.56,2.56,0,0,1-3.38-1.09,514.54,514.54,0,0,0-36.41-58.36A2.55,2.55,0,0,1,1097.14,248.8Z"/><path class="cls-3" d="M1280.35,217c-5.62,17.76-8.21,39.26-8.5,41.78a2,2,0,0,0,0,.49h0a2.36,2.36,0,0,1-4.52,1.17c-7.71-18-12.51-71.64-.73-130.35a2.38,2.38,0,0,1,2.79-1.86l.36.08a2.36,2.36,0,0,1,1.84,2.79c-9.67,47.14-8.2,90.42-3.58,114.35a2.09,2.09,0,0,1,0,.66c-.47,5.06-.72,8.45-1,10.16.71-6,3.48-24.93,8.74-40.78a2.36,2.36,0,0,1,3-1.48l0,0A2.37,2.37,0,0,1,1280.35,217Zm129.37,42.13-.16.16a2.36,2.36,0,0,1-3.4-.06l-4.83-5.21c-6.44-6.89-16.46-11.25-27.17-13.27a2.37,2.37,0,0,0-2.8,2.34c.16,25.79-4.27,34.27-17.78,36.68-23.5,3.75-40.25-14-29-30.75,6.41-10.45,22.51-15,39.11-14.61a2.35,2.35,0,0,0,2.4-2.43c0-.46,0-.95,0-1.46l-3.36-72a2.36,2.36,0,0,0-3-2.16c-16.3,4.68-36.6,6.61-49.33-6.13a2.37,2.37,0,0,1,.28-3.54l.22-.17a2.36,2.36,0,0,1,3.08.23c11.56,11.56,31,9,46.62,4.29a2.35,2.35,0,0,0,1.66-2.37l-1.91-38.42v-.86a2.36,2.36,0,0,1,4.39-1.2c12.58,21.17,23.17,19.19,35.24,21.86a2.37,2.37,0,0,1,1.87,2.31v.73a2.36,2.36,0,0,1-.66,1.63c-1.89,2-8,7.8-19.59,13.28-2.95,1.36-7.35,3.34-12.44,5.38a2.39,2.39,0,0,0-1.49,2.3l3.43,74.82c0,.94.09,1.88.17,2.88a2.36,2.36,0,0,0,2,2.15c12.33,2,24.21,6.89,31.58,15l5,5.33A2.37,2.37,0,0,1,1409.72,259.1Zm-43.34-17.21a2.38,2.38,0,0,0-2.24-2.32c-15-.95-29.84,3.11-35.56,12.17-8.75,13,5,26,24,23C1363.51,273,1366.89,266.14,1366.38,241.89Zm.75-96.47a2.36,2.36,0,0,0,3.26,2.05c3.58-1.48,6.84-2.81,9.19-4a83.13,83.13,0,0,0,10.21-5.83,2.35,2.35,0,0,0-.9-4.27,32.6,32.6,0,0,1-18.76-9.66,2.36,2.36,0,0,0-4,1.76C1366.34,131,1366.69,137.81,1367.13,145.42Z"/><path class="cls-3" d="M1573.54,273.28a2.49,2.49,0,0,1-2,3l-10,1.82c-46.48,8.37-99.77-7.25-79.61-45.8,7.69-14.58,29.41-24.92,47.28-31.12a2.49,2.49,0,0,0,.25-4.6c-10.06-5-16.16-15.49-17.44-30.85-1.5-17,5.71-47.75-10.49-70.54a2.5,2.5,0,0,1,.54-3.43h0a2.51,2.51,0,0,1,3.56.57c17.09,24.24,9.89,56.36,11.39,72.88,2,22.75,14.69,32.85,36.63,29a2.5,2.5,0,0,1,2.94,2.45v.19a2.5,2.5,0,0,1-1.95,2.45c-10.15,2.26-56.7,13.68-68.21,35.5-17.16,33,29.12,46.68,74.1,38.32l10.08-1.84a2.49,2.49,0,0,1,2.9,2Z"/><path class="cls-3" d="M1640.07,298a33.78,33.78,0,0,1-10.25-24.75,35,35,0,1,1,35,35A33.78,33.78,0,0,1,1640.07,298Zm3.5-46a29.26,29.26,0,0,0-8.75,21.25,30,30,0,1,0,30-30A29.26,29.26,0,0,0,1643.57,252Z"/></g></g></svg>