<svg xmlns="http://www.w3.org/2000/svg" viewBox="0 0 2000.97 400.5">
  <defs/>
  <g data-name="レイヤー 2">
    <g data-name="レイヤー 1">
      <path fill="#fff" stroke="#000" stroke-miterlimit="10" d="M2000 400H307.64L36.27 16.84h1692.36z" opacity=".77"/>
      <path fill="#35e5ff" d="M1963.73 383.16H271.37L0 0h1692.36z" opacity=".77"/>
      <path fill="#fff" d="M462 280.25a2.49 2.49 0 01-2.46-2.16L436.83 103h-.5l-49.49 175.44a2.47 2.47 0 01-2.38 1.81h-4.25a2.49 2.49 0 01-2.39-1.81L328.33 103h-.5l-22.72 175.09a2.48 2.48 0 01-2.45 2.16 2.48 2.48 0 01-2.46-2.8l23.1-177.54a2.48 2.48 0 012.46-2.16h4.45a2.48 2.48 0 012.38 1.8l49.49 175.7h.5l49.49-175.7a2.5 2.5 0 012.39-1.8h4.45a2.47 2.47 0 012.45 2.16l23.11 177.54a2.48 2.48 0 01-2.46 2.8zM593.05 277.83a1.47 1.47 0 01-1.47-1.47v-27.53h-.5c-8.32 17.8-25.19 29.61-46.65 31.29-25.2 2-46.33-19.73-42.3-44.68a36.61 36.61 0 017.95-17.36c6.5-8 15.75-13.75 33.5-17.5a156.85 156.85 0 0130.5-2.75h16a1.47 1.47 0 001.47-1.47v-11c0-25.75-9.75-35-37.5-35a113.75 113.75 0 00-44.2 8.38 1.48 1.48 0 01-2.05-1.35v-2.29a1.48 1.48 0 01.92-1.37c13.52-5.5 28.71-8.37 45.33-8.37 30.75 0 42.5 11.25 42.5 40v91a1.47 1.47 0 01-1.47 1.47zm-1.47-52.5v-21a1.47 1.47 0 00-1.47-1.47h-16c-42 0-64.4 11.54-67.2 34.84-2.54 21.12 15.34 39 36.57 37.51 27.97-1.95 48.1-22.3 48.1-49.88zM649.62 92.75a2.46 2.46 0 012.46 2.46v114h.5l79.1-58.52a2.46 2.46 0 011.46-.48h.18a2.46 2.46 0 011.46 4.45l-76.33 56.12a2.46 2.46 0 00-.06 3.93l78.06 61.09a2.47 2.47 0 01-1.52 4.41 2.46 2.46 0 01-1.52-.53l-80.83-63.47h-.5v61.53a2.47 2.47 0 01-2.46 2.47h-.08a2.47 2.47 0 01-2.46-2.47V95.21a2.46 2.46 0 012.46-2.46zM874.08 262.5c-9.75 11.75-23.75 17.75-41.5 17.75-35.75 0-56.25-24.5-56.25-67.5s20.5-67.5 56.25-67.5 56.25 24.5 56.25 67.5c0 21.5-5 38-14.75 49.75zm-79.5-3.5c8.75 10.75 21.5 16.25 38 16.25 33 0 51.25-22.25 51.25-62.5s-18.25-62.5-51.25-62.5-51.25 22.25-51.25 62.5c0 20.25 4.5 35.5 13.25 46.25zM1059.58 273.37a2.5 2.5 0 01-2 2.95l-10 1.79c-46.5 8.25-99.75-7.5-79.5-46 7.72-14.56 29.47-24.84 47.36-31a2.49 2.49 0 00.25-4.6c-10-5-16.12-15.53-17.36-30.9-1.46-17 5.82-47.73-10.31-70.56a2.48 2.48 0 01.54-3.42 2.51 2.51 0 013.56.57c17 24.28 9.75 56.39 11.21 72.91 1.91 22.76 14.61 32.89 36.56 29.09a2.49 2.49 0 012.94 2.45v.19a2.5 2.5 0 01-2 2.44c-10.16 2.23-56.73 13.54-68.29 35.33-17.25 33 29 46.75 74 38.5l10.09-1.81a2.5 2.5 0 012.89 2zM1097.14 248.8a2.58 2.58 0 013.52.62 525.73 525.73 0 0136.79 58.93 2.55 2.55 0 01-1.14 3.51 2.56 2.56 0 01-3.38-1.09 514.54 514.54 0 00-36.41-58.36 2.55 2.55 0 01.62-3.61zM1280.35 217c-5.62 17.76-8.21 39.26-8.5 41.78a2 2 0 000 .49 2.36 2.36 0 01-4.52 1.17c-7.71-18-12.51-71.64-.73-130.35a2.38 2.38 0 012.79-1.86l.36.08a2.36 2.36 0 011.84 2.79c-9.67 47.14-8.2 90.42-3.58 114.35a2.09 2.09 0 010 .66c-.47 5.06-.72 8.45-1 10.16.71-6 3.48-24.93 8.74-40.78a2.36 2.36 0 013-1.48 2.37 2.37 0 011.6 2.99zm129.37 42.13l-.16.16a2.36 2.36 0 01-3.4-.06l-4.83-5.21c-6.44-6.89-16.46-11.25-27.17-13.27a2.37 2.37 0 00-2.8 2.34c.16 25.79-4.27 34.27-17.78 36.68-23.5 3.75-40.25-14-29-30.75 6.41-10.45 22.51-15 39.11-14.61a2.35 2.35 0 002.4-2.43v-1.46l-3.36-72a2.36 2.36 0 00-3-2.16c-16.3 4.68-36.6 6.61-49.33-6.13a2.37 2.37 0 01.28-3.54l.22-.17a2.36 2.36 0 013.08.23c11.56 11.56 31 9 46.62 4.29a2.35 2.35 0 001.66-2.37l-1.91-38.42v-.86a2.36 2.36 0 014.39-1.2c12.58 21.17 23.17 19.19 35.24 21.86a2.37 2.37 0 011.87 2.31v.73a2.36 2.36 0 01-.66 1.63c-1.89 2-8 7.8-19.59 13.28-2.95 1.36-7.35 3.34-12.44 5.38a2.39 2.39 0 00-1.49 2.3l3.43 74.82c0 .94.09 1.88.17 2.88a2.36 2.36 0 002 2.15c12.33 2 24.21 6.89 31.58 15l5 5.33a2.37 2.37 0 01-.13 3.24zm-43.34-17.21a2.38 2.38 0 00-2.24-2.32c-15-.95-29.84 3.11-35.56 12.17-8.75 13 5 26 24 23 10.93-1.77 14.31-8.63 13.8-32.88zm.75-96.47a2.36 2.36 0 003.26 2.05c3.58-1.48 6.84-2.81 9.19-4a83.13 83.13 0 0010.21-5.83 2.35 2.35 0 00-.9-4.27 32.6 32.6 0 01-18.76-9.66 2.36 2.36 0 00-4 1.76c.21 5.5.56 12.31 1 19.92zM1573.54 273.28a2.49 2.49 0 01-2 3l-10 1.82c-46.48 8.37-99.77-7.25-79.61-45.8 7.69-14.58 29.41-24.92 47.28-31.12a2.49 2.49 0 00.25-4.6c-10.06-5-16.16-15.49-17.44-30.85-1.5-17 5.71-47.75-10.49-70.54a2.5 2.5 0 01.54-3.43 2.51 2.51 0 013.56.57c17.09 24.24 9.89 56.36 11.39 72.88 2 22.75 14.69 32.85 36.63 29a2.5 2.5 0 012.94 2.45v.19a2.5 2.5 0 01-1.95 2.45c-10.15 2.26-56.7 13.68-68.21 35.5-17.16 33 29.12 46.68 74.1 38.32l10.08-1.84a2.49 2.49 0 012.9 2zM1640.07 298a33.78 33.78 0 01-10.25-24.75 35 35 0 1135 35 33.78 33.78 0 01-24.75-10.25zm3.5-46a29.26 29.26 0 00-8.75 21.25 30 30 0 1030-30 29.26 29.26 0 00-21.25 8.75z"/>
    </g>
  </g>
</svg>
