<svg xmlns="http://www.w3.org/2000/svg" viewBox="0 0 1512.8 1440.88"  xmlns:v="https://vecta.io/nano"><defs><linearGradient id="A" x1="-36.63" y1="334.11" x2="1394.85" y2="755.12" gradientUnits="userSpaceOnUse"><stop offset=".01" stop-color="red"/><stop offset=".12" stop-color="orange"/><stop offset=".22" stop-color="#ff0"/><stop offset=".46" stop-color="green"/><stop offset=".52" stop-color="#0ff"/><stop offset=".81" stop-color="#00f"/><stop offset=".94" stop-color="purple"/></linearGradient></defs><path d="M497 1039.78C316.44 1069 300.7 843.54 337.76 732a7.62 7.62 0 0 1 9.91-4.72l.85.31a7.62 7.62 0 0 1 4.58 9.55c-36.1 107.56-21.19 312 141.3 286.17a7.63 7.63 0 0 1 8.74 6.37l.21 1.39a7.69 7.69 0 0 1-6.35 8.71zm268-87.36c5.4-79.18-42.23-175.19-149.79-193.42a7.6 7.6 0 0 1-6.21-8.71l.19-1.21a7.67 7.67 0 0 1 8.88-6.33c114.9 19.73 168 126.45 163.32 210.77a7.65 7.65 0 0 1-8.85 7.1l-1.11-.18a7.61 7.61 0 0 1-6.43-8.02zm533.47 30.2c-32.71 86.05-146.9 150.51-322.76 146-4.57-.11-4.44-3.39-5.87-6.85l1.07-7.2c3.91-3.74 9.29-6.34 13.7-6.23 168.75 4.31 269.35-53.61 298.36-131.38 44.33-118.17-147.17-262.48-354.13-63.56a8.15 8.15 0 0 1-11.09.24L917 913a8.12 8.12 0 0 1-.89-11.21c74.63-91.21 219.63-259 276.62-314.49a7.63 7.63 0 0 0-6.37-13c-46.07 6.39-124.83 10.78-168.49-18.49A8.15 8.15 0 0 1 1016 544l.21-.27a8.07 8.07 0 0 1 10.88-1.81c52.34 35.77 159.43 15.52 186.18 10.71a6.71 6.71 0 0 1 5.1 1.49c26.32 25-56.6 79.25-225.07 281.73a4 4 0 0 0 5 6c197.32-113.47 340.54 32.41 300.19 140.77zm-539-800.36c-30.76 76.9-65.56 141.65-88.23 175.65l-25.88 40.57a7.63 7.63 0 0 1-10.48 2.37h0a7.63 7.63 0 0 1-2.39-10.58l25.8-40.45c21-34 55.85-97.14 86.61-174l11.15-28.88a7.66 7.66 0 0 0-8.3-10.21c-35.81 5.52-75.06 4.87-117.24-9.84a7.66 7.66 0 0 1-4.51-10.37l.28-.62a7.6 7.6 0 0 1 9.37-4.15c45.09 15.49 87.36 14.36 124.92 6a7.58 7.58 0 0 0 5.71-5.62c7.89-33.53 5.22-64.07-20.13-99.51a7.65 7.65 0 0 1 1.6-10.57l.7-.52a7.63 7.63 0 0 1 10.84 1.71c24.18 34.19 30.1 65.17 25.85 96.29a7.63 7.63 0 0 0 10 8.3C819 99.56 841 89.34 860.93 80.23a7.62 7.62 0 0 1 10.14 3.84l.34.78a7.63 7.63 0 0 1-3.66 10c-24.38 11.73-53.07 24.84-85 33.75a7.62 7.62 0 0 0-5.18 4.89c-5.3 15.71-11.35 31.51-18.09 48.77zm177 183.21c-5 33.54-9 70.22-12.7 105.68a7.61 7.61 0 0 0 4.35 7.66 432.73 432.73 0 0 1 73.26 44.76l31.32 22.61a7.63 7.63 0 0 1 1.88 10.42l-.4.6a7.64 7.64 0 0 1-10.78 2l-31.66-22.5a476.72 476.72 0 0 0-61.14-38.52 7.68 7.68 0 0 0-11.14 5.64l-5.31 35.21c-9.15 53.45-73.49 69.53-136.29 38.25-71-36-64.08-105.4 10.38-123 30.26-7.05 69.22-2.65 109.72 12.64a7.62 7.62 0 0 0 10.25-6.19l12.31-98c10.99-68.73 17.8-103.73 48.2-118.22 15.92-7.87 68.76-13.32 81.45-6.81 7 3.6 7.14-3-2.6-8.57C1032 220.25 978.06 204.71 959 204a7.6 7.6 0 0 1-7.28-7.4v-1.21a7.61 7.61 0 0 1 9-7.68c112.26 20.05 122.32 45.52 150.43 79.54a116.78 116.78 0 0 1 5.56 6.72 7.63 7.63 0 0 1-1.67 10.86l-1 .67a7.7 7.7 0 0 1-10.12-1.17 18.85 18.85 0 0 0-1-1 6.31 6.31 0 0 1-.55-.61c-13.77-17.27-56.74-57.61-126.2-23.79-23.26 10.8-28.7 37.79-39.65 106.54zm-32.06 126.86a7.62 7.62 0 0 0-4.68-8c-40.12-16.15-78.06-21.39-107.51-14.64-60 14.38-64.29 63.73-6.8 92.46 52.85 27.11 105.73 15.63 112.83-25.86 2.42-14.13 4.32-29 6.16-43.96zM134.14 183.09C103.38 260 68.57 324.74 45.91 358.73L20 399.3a7.64 7.64 0 0 1-10.49 2.37h0a7.64 7.64 0 0 1-2.39-10.58L33 350.64c21-34 55.85-97.13 86.6-174l11.16-28.88a7.66 7.66 0 0 0-8.31-10.2c-35.81 5.52-75 4.87-117.24-9.84a7.68 7.68 0 0 1-4.55-10.38l.28-.62a7.58 7.58 0 0 1 9.36-4.14c45.09 15.49 87.36 14.35 124.93 6a7.53 7.53 0 0 0 5.7-5.62c7.89-33.52 5.23-64.06-20.12-99.5a7.65 7.65 0 0 1 1.6-10.58l.69-.52A7.64 7.64 0 0 1 134 4.07c24.13 34.19 30 65.18 25.8 96.29a7.63 7.63 0 0 0 10 8.31c23.88-8.29 45.8-18.51 65.77-27.62a7.64 7.64 0 0 1 10.15 3.85l.34.77a7.63 7.63 0 0 1-3.67 10c-24.37 11.73-53.06 24.83-84.94 33.75a7.64 7.64 0 0 0-5.19 4.88c-5.34 15.7-11.39 31.56-18.12 48.79zm177 183.2c-5 33.54-9 70.22-12.7 105.68a7.59 7.59 0 0 0 4.34 7.66 432.49 432.49 0 0 1 73.27 44.77L407.4 547a7.65 7.65 0 0 1 1.89 10.43l-.4.6a7.65 7.65 0 0 1-10.78 2l-31.66-22.49A476.91 476.91 0 0 0 305.3 499a7.67 7.67 0 0 0-11.13 5.65l-5.31 35.2c-9.15 53.46-73.49 69.54-136.3 38.26-71-36-64.08-105.41 10.39-123 30.25-7.05 69.22-2.65 109.71 12.64a7.62 7.62 0 0 0 10.26-6.19l12.3-97.95c10.95-68.75 17.76-103.72 48.16-118.22 15.91-7.87 68.75-13.32 81.44-6.82 7 3.6 7.14-3-2.59-8.56-15.53-8.89-69.52-24.42-88.62-25.16a7.6 7.6 0 0 1-7.29-7.4v-1.2a7.62 7.62 0 0 1 8.95-7.69c112.23 20.01 122.28 45.44 150.4 79.49 2.23 2.52 4.08 4.8 5.55 6.72a7.62 7.62 0 0 1-1.67 10.86l-.95.68a7.7 7.7 0 0 1-10.11-1.17c-.31-.34-.63-.67-1-1a8 8 0 0 1-.56-.6c-13.77-17.28-56.74-57.62-126.19-23.8-23.17 10.81-28.61 37.8-39.56 106.55zm-32.07 126.87a7.64 7.64 0 0 0-4.68-8c-40.12-16.14-78.06-21.38-107.52-14.63-59.94 14.37-64.28 63.72-6.79 92.45 52.84 27.12 105.72 15.64 112.82-25.85 2.42-14.13 4.32-29.02 6.17-43.97z" fill="url(#A)"/><path d="M1170.16 1356l75.66 1.57 37.71.79c5.65.12 11.35.45 17 .16 5.81-.31 11.86-1.33 16.88-4.46a25 25 0 0 0 10.64-14.12 36.24 36.24 0 0 0 1-15 86.68 86.68 0 0 0-9.63-29.12c-9.11-17.41-23.72-32.49-42.32-39.48a56.67 56.67 0 0 0-29.34-2.54 59.39 59.39 0 0 0-25.69 11.48c-16.19 12.29-27.19 30.11-33.44 49.28-7 21.35-8.65 45.13-2.46 66.88a84 84 0 0 0 37 49.08c17 10.27 38.78 13.93 57.52 6.19a64.41 64.41 0 0 0 24.28-17.12c6.4-7.4 11.39-16.29 13.3-26a48.69 48.69 0 0 0 .83-14.5 8.1 8.1 0 0 0-2.19-5.3 7.66 7.66 0 0 0-5.31-2.2c-3.71.17-7.93 3.32-7.5 7.5a42.1 42.1 0 0 1-.12 9.78l.27-2a45.78 45.78 0 0 1-3.2 11.65l.76-1.79a51.89 51.89 0 0 1-4.86 8.86c-.53.77-1.1 1.51-1.65 2.27 1.61-2.22-.15.16-.6.68a53.92 53.92 0 0 1-3.49 3.76c-1.22 1.2-2.51 2.35-3.84 3.44-.44.36-1.93 1.43.12-.07l-.85.64c-.72.53-1.44 1-2.18 1.53a57 57 0 0 1-9.22 5l1.79-.76a52 52 0 0 1-13 3.59l2-.27a56 56 0 0 1-14.57-.05l2 .26a63.28 63.28 0 0 1-15.84-4.38l1.79.76a71.71 71.71 0 0 1-9.49-4.93c-1.53-.95-3-2-4.47-3l-1-.78c-1-.74 1.4 1.11.19.15-.73-.58-1.45-1.17-2.16-1.78a74.76 74.76 0 0 1-7.7-7.61c-.58-.65-1.14-1.32-1.69-2l-.82-1c-1-1.23 1 1.29 0 0q-1.62-2.16-3.09-4.44a76.1 76.1 0 0 1-5.94-11.35l.75 1.79a89.7 89.7 0 0 1-6-22.53l.26 2a108.22 108.22 0 0 1 .13-28.2l-.27 2a120.69 120.69 0 0 1 8.19-30.38l-.76 1.8a100.41 100.41 0 0 1 11.66-20.61 11.39 11.39 0 0 0 .89-1.18l-.49.64c.11-.14.22-.29.34-.43.65-.81 1.31-1.62 2-2.41q1.91-2.22 4-4.29 2.09-2.07 4.23-3.94 1-.87 2.07-1.71c1.3-1-1.21.91-.25.19a29.52 29.52 0 0 1 1.44-1 58.44 58.44 0 0 1 11-6.21l-1.8.76a51.26 51.26 0 0 1 12.56-3.47l-2 .27a49 49 0 0 1 13.08 0l-2-.26a52 52 0 0 1 12.94 3.6l-1.79-.75a59.81 59.81 0 0 1 9.64 5.22 84.24 84.24 0 0 1 2.18 1.51l1.13.85c.37.29.77.59-.19-.16s-.17-.12.08.08c1.49 1.19 2.93 2.45 4.32 3.75a79.72 79.72 0 0 1 7.63 8.28c.35.44 1.44 1.93 0-.08.25.35.52.69.77 1 .63.84 1.23 1.68 1.83 2.54q1.62 2.36 3.09 4.81a92.47 92.47 0 0 1 5.92 11.66l-.76-1.79a73.76 73.76 0 0 1 5.29 18.16l-.27-2a37.21 37.21 0 0 1 .13 9.43l.27-2a23.35 23.35 0 0 1-1.5 5.68l.76-1.79a18.25 18.25 0 0 1-1.33 2.56c-.15.24-.32.47-.48.71-.53.83.45-.62.56-.69a8.42 8.42 0 0 0-1.05 1.17c-.34.34-.69.68-1.06 1s-1.21.64.48-.36c-.22.13-.41.29-.62.42a18.49 18.49 0 0 1-3 1.56l1.79-.75a28.24 28.24 0 0 1-7 1.77l2-.27a73.67 73.67 0 0 1-10.5.36l-13.24-.28-26.72-.55-53.18-1.11-30.22-.63a7.56 7.56 0 0 0-7.5 7.5 7.65 7.65 0 0 0 7.5 7.5zm-177.99 0l75.66 1.57 37.71.79c5.65.12 11.34.45 17 .16 5.81-.31 11.86-1.33 16.87-4.46a25 25 0 0 0 10.65-14.12 36.24 36.24 0 0 0 1-15 86.68 86.68 0 0 0-9.63-29.12c-9.11-17.41-23.72-32.49-42.32-39.48a56.71 56.71 0 0 0-29.35-2.54 59.49 59.49 0 0 0-25.69 11.48c-16.18 12.29-27.18 30.11-33.44 49.28-7 21.35-8.65 45.13-2.46 66.88a84 84 0 0 0 37 49.08c17 10.27 38.79 13.93 57.52 6.19a64.25 64.25 0 0 0 24.28-17.12c6.41-7.4 11.39-16.29 13.3-26a48.69 48.69 0 0 0 .84-14.5 8.11 8.11 0 0 0-2.2-5.3 7.63 7.63 0 0 0-5.3-2.2c-3.72.17-7.93 3.32-7.5 7.5a42.65 42.65 0 0 1-.12 9.78l.27-2a46.62 46.62 0 0 1-3.2 11.65l.76-1.79a52.58 52.58 0 0 1-4.86 8.86c-.53.77-1.1 1.51-1.65 2.27 1.6-2.22-.16.16-.6.68q-1.67 2-3.5 3.76-1.83 1.76-3.83 3.44c-.45.36-1.93 1.43.12-.07l-.85.64q-1.08.79-2.19 1.53a56.59 56.59 0 0 1-9.22 5l1.79-.76a51.94 51.94 0 0 1-12.94 3.59l2-.27a56 56 0 0 1-14.57-.05l2 .26a63.05 63.05 0 0 1-15.84-4.38l1.79.76a71.83 71.83 0 0 1-9.5-4.93c-1.52-.95-3-2-4.46-3l-1-.78c-1-.74 1.41 1.11.19.15a61.49 61.49 0 0 1-2.15-1.78 75.88 75.88 0 0 1-7.71-7.61c-.57-.65-1.14-1.32-1.69-2l-.82-1c-1-1.23 1 1.29 0 0q-1.63-2.16-3.09-4.44a76.16 76.16 0 0 1-6-11.35l.76 1.79a89.3 89.3 0 0 1-6.05-22.53l.27 2a107.78 107.78 0 0 1 .13-28.2l-.27 2a120.67 120.67 0 0 1 8.18-30.38l-.75 1.8a100 100 0 0 1 11.66-20.61 11.39 11.39 0 0 0 .89-1.18l-.5.64c.12-.14.23-.29.34-.43a91.18 91.18 0 0 1 2-2.41q1.91-2.22 4-4.29 2.09-2.07 4.23-3.94 1-.87 2.07-1.71c1.3-1-1.21.91-.24.19.47-.36.95-.71 1.43-1a58.44 58.44 0 0 1 11-6.21l-1.79.76a51.14 51.14 0 0 1 12.56-3.47l-2 .27a49 49 0 0 1 13.09 0l-2-.26a52 52 0 0 1 13 3.6l-1.79-.75a59.81 59.81 0 0 1 9.64 5.22c.73.49 1.46 1 2.17 1.51l1.14.85c.21.16.77.59-.2-.16s-.16-.12.08.08a73.62 73.62 0 0 1 4.33 3.75 80.84 80.84 0 0 1 7.63 8.28c.35.44 1.43 1.93 0-.08.25.35.51.69.77 1l1.82 2.54a89.51 89.51 0 0 1 3.1 4.81 93.76 93.76 0 0 1 5.91 11.66l-.75-1.79a73.73 73.73 0 0 1 5.28 18.16l-.27-2a37.21 37.21 0 0 1 .14 9.43l.26-2a23.33 23.33 0 0 1-1.49 5.68l.76-1.79a18.3 18.3 0 0 1-1.34 2.56c-.15.24-.32.47-.47.71-.53.83.45-.62.55-.69a8.35 8.35 0 0 0-1 1.17 20.38 20.38 0 0 1-1.07 1c-.37.32-1.21.64.48-.36-.21.13-.41.29-.61.42a18.59 18.59 0 0 1-3 1.56l1.8-.75a28.47 28.47 0 0 1-7 1.77l2-.27a73.57 73.57 0 0 1-10.5.36l-13.23-.28-26.72-.55-53.19-1.11-30.21-.63a7.55 7.55 0 0 0-7.5 7.5 7.64 7.64 0 0 0 7.5 7.5zm486.17-122.95l-.58 5.62.27-2a102 102 0 0 1-7.08 25.7l.76-1.79a109.7 109.7 0 0 1-7.68 14.84q-2.17 3.52-4.61 6.88l-1.26 1.71-.64.84.52-.68-2.9 3.56a115.15 115.15 0 0 1-11.64 11.84l-3 2.52-1.64 1.33-.56.43c-1 .79 1.64-1.24.12-.09l-6.94 4.85a109.31 109.31 0 0 1-16.46 8.72l1.79-.76a100.78 100.78 0 0 1-25.36 7l2-.27-3.51.41a8.09 8.09 0 0 0-5.31 2.2 7.58 7.58 0 0 0-2.19 5.3c.16 3.73 3.31 7.92 7.5 7.5a111.79 111.79 0 0 0 56.9-22.65c16.33-12.54 29.7-28.91 37.79-47.92a110.36 110.36 0 0 0 8.68-35.11c.3-3.92-3.66-7.67-7.5-7.5a7.69 7.69 0 0 0-7.5 7.5z"/><path d="M1376.44 1331.62a195.24 195.24 0 0 0 19.17 49.56 186.28 186.28 0 0 0 13.93 21.54 138.7 138.7 0 0 0 17.9 20.36 72.3 72.3 0 0 0 24.12 14.8 49.1 49.1 0 0 0 28.16 1.64c15.66-4 28.93-17.62 32.18-33.49a42.93 42.93 0 0 0-2.06-24.51 45.91 45.91 0 0 0-5.85-10.72 48.26 48.26 0 0 0-9.83-9.79 34.6 34.6 0 0 0-4.58-2.89c-3.47-1.83-8.32-1-10.26 2.69-1.84 3.47-1 8.3 2.69 10.26.9.48 1.79 1 2.65 1.55q.61.39 1.2.81l.73.53c.81.59-.6-.41-.66-.51.21.34.8.65 1.11.92s.81.71 1.2 1.09c.74.7 1.45 1.44 2.13 2.2.33.36.64.72 1 1.09a3.14 3.14 0 0 0 .45.57c-.11-.08-1.1-1.48-.51-.66s1.19 1.66 1.74 2.53a39.82 39.82 0 0 1 2.92 5.61l-.75-1.79a38.64 38.64 0 0 1 2.64 9.73l-.26-2a36.14 36.14 0 0 1 0 9l.27-2a35.13 35.13 0 0 1-2.45 8.89l.76-1.79a38.7 38.7 0 0 1-3.39 6.23 43.41 43.41 0 0 1-.92 1.31c-.73 1 .25-.23.41-.53a4.65 4.65 0 0 1-.56.7 39.53 39.53 0 0 1-2.39 2.64c-.84.85-1.62 1.56-2.48 2.29l-.69.56c-1 .78.32-.15.54-.4a7.59 7.59 0 0 1-1.45 1 37.91 37.91 0 0 1-6.21 3.42l1.79-.76a35.76 35.76 0 0 1-8.9 2.46l2-.27a41.58 41.58 0 0 1-10.69 0l2 .26a49.92 49.92 0 0 1-12.46-3.45l1.79.76a57.71 57.71 0 0 1-8-4.2c-1.2-.75-2.38-1.54-3.53-2.37-.57-.41-1.12-.86-1.7-1.26 1.69 1.18.76.58.35.25l-1.15-.94a102.82 102.82 0 0 1-12.32-12.37l-2.72-3.28-1.34-1.68-.8-1 .64.83-.52-.68q-2.75-3.61-5.31-7.34-5-7.29-9.32-15a189.15 189.15 0 0 1-8.88-18.22l.76 1.79a188.29 188.29 0 0 1-9.75-29.91 7.56 7.56 0 0 0-9.23-5.24 7.65 7.65 0 0 0-5.23 9.22z"/><path d="M1362.76 1222a102.95 102.95 0 0 0 71.53-120 93.3 93.3 0 0 0-3.42-12.51c-1.37-3.91-2.86-7.93-5.27-11.33-2.79-3.93-6.48-7.33-11.34-8.35a16.64 16.64 0 0 0-14.63 4.17 27.88 27.88 0 0 0-6.61 9.54c-2 4.44-3.61 9-5.16 13.65a247.83 247.83 0 0 0-7.24 26.51 381.06 381.06 0 0 0-7.41 56.41c-1.19 18.6-1.41 37.25-1.51 55.89q-.15 30 .06 60 .42 60.4 2.35 120.78.24 7.41.5 14.82c.13 3.92 3.35 7.69 7.5 7.5 3.94-.17 7.64-3.3 7.5-7.5q-2-58.07-2.67-116.17l.26-113.16c.26-8.93.67-17.86 1.32-26.78q.49-6.66 1.16-13.31.33-3.24.72-6.47l.4-3.23c0-.43.11-.86.16-1.29.12-.88.12-.86 0 .06 0-.32.09-.64.14-1a269.48 269.48 0 0 1 12.18-51.92q1-2.91 2.12-5.79l.59-1.52c.49-1.32-.2.47-.21.45-.17-.21 1.09-2.31 1.29-2.69.39-.73.81-1.45 1.26-2.14l.28-.41c.38-.53.37-.54 0 0l-.3.38c.2-.25.41-.5.62-.74s.56-.55.82-.85c.76-.86.66.07-.3.14a4.34 4.34 0 0 0 .75-.51c.25-.15.51-.29.78-.43-1.13.45-1.31.53-.56.27a8.17 8.17 0 0 0 .86-.22c-.53.58-1.73.06-.4.12s-.13.25-.36-.11a4.75 4.75 0 0 0 1.1.31c.84.11-1.51-.94-.35-.09a8 8 0 0 0 .77.49l-.78-.61.69.63c.35.34.66.7 1 1.05 1.12 1.25-.86-1.41 0 0 .17.28.37.55.55.83.44.71.84 1.45 1.21 2.2.19.37.35.75.53 1.12.49 1-.67-1.75-.08-.21l1.26 3.39a93.71 93.71 0 0 1 3.25 11.63c.41 2 .74 4 1.06 5.95s-.12-1.13 0 .1c0 .5.12 1 .17 1.5.13 1.2.24 2.41.32 3.61a97.39 97.39 0 0 1 .11 12.08 101.11 101.11 0 0 1-.51 6s-.26 2-.09.8-.12.74-.13.8c-.18 1.19-.38 2.38-.61 3.57a96.38 96.38 0 0 1-3 11.69c-.63 1.91-1.31 3.81-2.06 5.68 0 0-.77 1.85-.31.78s-.33.74-.34.77l-1.52 3.22a92.64 92.64 0 0 1-5.32 9.35q-1.45 2.27-3.05 4.44c-.26.34-1.88 2.78-.78 1a26 26 0 0 1-2 2.51 95.82 95.82 0 0 1-7.37 7.84c-1.3 1.24-2.64 2.44-4 3.61l-2.08 1.72-1 .84.45-.35-.86.65a101.35 101.35 0 0 1-19 11.07c-1.23.55.12 0 .3-.13a16.06 16.06 0 0 1-1.49.61l-2.52 1c-1.69.62-3.39 1.17-5.11 1.69-3.76 1.13-6.51 5.31-5.24 9.23s5.2 6.44 9.22 5.23zm-712.41-94.79c8.45 40.25 18.22 80.21 27.77 120.21l28.75 120.34 16.13 67.61a7.57 7.57 0 0 0 7.23 5.51 7.76 7.76 0 0 0 7.23-5.51l35.72-118.94c11.54-39.52 22.64-79.18 32.84-119.08q8.61-33.72 16.28-67.66h-14.44q14 60.13 30.43 119.64 16.43 59.51 35.42 118.26 10.66 33.06 22.1 65.87c1.06 3 3.81 5.66 7.24 5.51a7.76 7.76 0 0 0 7.23-5.51q18.08-59.14 33.37-119.08 15.2-59.62 27.6-119.91 7-33.78 13-67.75c.69-3.84-1-8.27-5.24-9.22-3.66-.84-8.48 1.11-9.22 5.24q-10.87 60.87-24.59 121.2-13.65 60-30.09 119.3-9.23 33.24-19.31 66.23h14.47q-20.32-58.29-38.2-117.39-17.88-59.1-33.24-118.88-8.64-33.66-16.51-67.5c-1.65-7.11-12.85-7.18-14.46 0-9.08 40.38-19.33 80.48-30.28 120.38l-34.37 118.68q-10 33.33-20.19 66.63h14.46l-28.89-121-28.65-120.06-15.12-67.15c-.81-3.85-5.54-6.43-9.23-5.24a7.69 7.69 0 0 0-5.24 9.23z"/></svg>