<svg xmlns="http://www.w3.org/2000/svg" xmlns:xlink="http://www.w3.org/1999/xlink" viewBox="0 0 1585.62 1567.18"><defs><style>.cls-1{fill:url(#名称未設定グラデーション_65);}.cls-2{fill:url(#ホワイト_ブラック);}</style><linearGradient id="名称未設定グラデーション_65" x1="363.01" y1="866.97" x2="1340.21" y2="870.75" gradientUnits="userSpaceOnUse"><stop offset="0.01" stop-color="red"/><stop offset="0.12" stop-color="orange"/><stop offset="0.22" stop-color="#ff0"/><stop offset="0.46" stop-color="green"/><stop offset="0.53" stop-color="aqua"/><stop offset="0.81" stop-color="blue"/><stop offset="0.94" stop-color="purple"/></linearGradient><linearGradient id="ホワイト_ブラック" x1="-14.44" y1="667.56" x2="1572.1" y2="899.74" gradientUnits="userSpaceOnUse"><stop offset="0" stop-color="#fff"/><stop offset="1"/></linearGradient></defs><g id="レイヤー_2" data-name="レイヤー 2"><g id="レイヤー_1-2" data-name="レイヤー 1"><path d="M1068.34,1461.27,782.87,304.73h-3.12L494.28,1461.27H444.36L180.73,277.16h32.76L467.76,1433.69h3.12L756.35,277.16h49.92l285.47,1156.53h3.12L1349.13,277.16h32.76L1118.26,1461.27Z"/><path class="cls-1" d="M1320.5,312.84V309.6H180.73V277.16H1381.89V309.6Q905.43,793.79,557.09,1461.27H501Q837.36,806.76,1320.5,312.84Z"/><path class="cls-2" d="M1016.21,48.05c23.48,8.11,46.53,16.78,69.41,26.2l8.55,3.58c2.83,1.23,5.73,2.33,8.54,3.62l17,7.51,16.84,7.84c2.82,1.29,5.6,2.65,8.38,4l8.34,4.11a939.78,939.78,0,0,1,128.42,76.67,791.31,791.31,0,0,1,114.67,99.8,722.24,722.24,0,0,1,49.84,59,681,681,0,0,1,79.33,134.41c2.61,6,5.32,12,7.73,18.11l3.71,9.13c1.25,3,2.33,6.14,3.51,9.21l3.45,9.24c1.13,3.09,2.17,6.21,3.26,9.31l3.18,9.35,3,9.42a709.07,709.07,0,0,1,30,155.17,750.15,750.15,0,0,1,2.08,79.2q-1,39.62-5.73,79a845.77,845.77,0,0,1-33.58,154.75c-32,100.77-83.23,195.73-151,277.57A785.43,785.43,0,0,1,1281.44,1406a755.07,755.07,0,0,1-134.27,86,723.38,723.38,0,0,1-149.29,55,696.23,696.23,0,0,1-156.62,20,767.7,767.7,0,0,1-155.17-14l-9.49-1.86-4.74-.94c-1.57-.31-3.14-.69-4.71-1-6.28-1.41-12.57-2.78-18.82-4.23l-18.68-4.68c-6.2-1.61-12.35-3.4-18.52-5.09s-12.27-3.6-18.39-5.44l-9.15-2.79-9.09-3-9.07-3-4.53-1.5-4.6-1.63-18.38-6.56-18-7.53-4.49-1.89-4.34-2-8.69-3.9-8.67-3.91-8.59-4.1c-5.72-2.75-11.47-5.37-17.11-8.3s-11.34-5.65-17-8.6l-16.77-8.94c-5.54-3.06-11.05-6.2-16.57-9.29-2.77-1.53-5.49-3.15-8.21-4.77l-8.17-4.84a891.84,891.84,0,0,1-123-88.32,795,795,0,0,1-104.68-108.85,783.11,783.11,0,0,1-81.77-127C45.65,1029.44,16.07,930.57,4.85,828.58Q.71,790.33.1,751.64t2.47-77.39c2-25.79,5.41-51.52,10-77.08s10.45-50.93,17.59-76C58.73,421.07,108,326.07,175.28,245.37A689,689,0,0,1,289,136.92,664,664,0,0,1,424.16,58a675,675,0,0,1,72.93-26.79A706.31,706.31,0,0,1,572,13,787.33,787.33,0,0,1,723.18,0,953.79,953.79,0,0,1,871.94,13.71l9.16,1.58c3,.52,6.1,1.05,9.13,1.67l18.22,3.54,18.14,3.89c3,.61,6,1.42,9,2.09l9,2.12C968.68,34.39,992.42,40.88,1016.21,48.05Zm-3.79,11.6c-23.14-7.14-46.82-13.35-70.63-18.38-6-1.19-11.92-2.49-17.91-3.56l-18-3.1c-6-.92-12-1.73-18.06-2.59-1.51-.2-3-.44-4.52-.61l-4.53-.51-9.06-1a646,646,0,0,0-144.87.88A613.83,613.83,0,0,0,586,64.39a631.77,631.77,0,0,0-64.76,28l-15.59,8-15.34,8.43-15.06,8.85c-4.93,3.1-9.9,6.09-14.8,9.19a751.49,751.49,0,0,0-108.83,84.88,849.08,849.08,0,0,0-92,101.42C203.93,385.56,159.44,466.53,127,552.86c-8.07,21.59-15.42,43.52-21.86,65.77S93,663.42,88.26,686.22,79.74,732.07,77,755.32,72.53,802,72,825.5a689.07,689.07,0,0,0,2,70.65,638.27,638.27,0,0,0,9.65,70.31A596.44,596.44,0,0,0,127.13,1102a579.35,579.35,0,0,0,75.25,121.3,614.16,614.16,0,0,0,101.93,100,677.15,677.15,0,0,0,121.5,74.78l8.06,3.84,4,1.91c1.35.63,2.72,1.21,4.08,1.82l16.33,7.18,16.51,6.76c5.51,2.22,11.1,4.27,16.65,6.38s11.18,4,16.78,6l8.41,2.93,8.48,2.74,8.49,2.72,4.23,1.36L542,1443l16.64,4.9,16.91,3.87,4.21,1,4.35.89,8.69,1.8,8.69,1.78,8.71,1.59c5.81,1,11.59,2.18,17.42,3q34.86,5.75,69.81,8.42a786,786,0,0,0,138.47-1.2,705.25,705.25,0,0,0,133.48-26.5A618.66,618.66,0,0,0,1093.48,1390a640.52,640.52,0,0,0,109.67-77.75,707.76,707.76,0,0,0,92.16-98.15c55.15-71.19,97.74-152.2,126.77-237.88a830.09,830.09,0,0,0,32.68-131.66q5.43-33.54,8-67.46t2.34-67.92A814.77,814.77,0,0,0,1453,573.46a725.49,725.49,0,0,0-36.38-132.74c-2.09-5.4-4.29-10.75-6.41-16.16l-6.85-16-7.31-15.87c-2.59-5.21-5.12-10.48-7.75-15.7a624.62,624.62,0,0,0-35.48-60.87A611.86,611.86,0,0,0,1260.88,207a652.17,652.17,0,0,0-116.08-86.43l-7.88-4.56-4-2.29c-1.32-.75-2.66-1.45-4-2.18-5.34-2.88-10.67-5.81-16.06-8.64l-16.3-8.19c-5.45-2.7-11-5.19-16.51-7.78C1058,76.81,1035.26,67.71,1012.42,59.65Z"/></g></g></svg>